<?xml version="1.0" encoding="UTF-8"?>
<svg width="512" height="512" viewBox="0 0 512 512" fill="none" xmlns="http://www.w3.org/2000/svg">
  <!-- Hintergrund -->
  <defs>
    <linearGradient id="grad1" x1="0%" y1="0%" x2="100%" y2="100%">
      <stop offset="0%" style="stop-color:#3B82F6;stop-opacity:1" />
      <stop offset="50%" style="stop-color:#A855F7;stop-opacity:1" />
      <stop offset="100%" style="stop-color:#EC4899;stop-opacity:1" />
    </linearGradient>
  </defs>
  
  <!-- Hauptkreis mit Gradient -->
  <circle cx="256" cy="256" r="248" fill="url(#grad1)" stroke="white" stroke-width="8"/>
  
  <!-- Kirsche Symbol -->
  <path d="M256 140C180 140 150 220 150 280C150 340 200 380 256 380C312 380 362 340 362 280C362 220 332 140 256 140Z" 
        fill="white" fill-opacity="0.9"/>
  
  <!-- Glanzeffekt -->
  <circle cx="220" cy="220" r="15" fill="white" fill-opacity="0.6"/>
  
  <!-- Stiel -->
  <path d="M256 140C256 140 256 100 256 80C256 60 270 40 300 40" 
        stroke="white" stroke-width="12" stroke-linecap="round"/>
  
  <!-- Blatt -->
  <path d="M300 40C300 40 320 40 340 60C360 80 350 100 330 100C310 100 300 80 300 40Z" 
        fill="white" fill-opacity="0.9"/>
</svg>
